<svg width="136" height="153" viewBox="0 0 136 153" fill="none" xmlns="http://www.w3.org/2000/svg">
<rect x="3.5" y="5.5" width="31" height="142" rx="15.5" stroke="black" stroke-width="7"/>
<path d="M86.3885 4.91105C60.0974 5.08576 43.3336 5.19716 20.3805 5.34969C11.7611 5.40697 4.81366 12.4409 4.87094 21.0604V21.0604C4.92822 29.6798 11.9621 36.6208 20.5816 36.5635L86.596 36.1249" stroke="black" stroke-width="7"/>
<path d="M87.0702 63.2116C59.7691 63.393 42.5621 63.5074 18.4596 63.6675C10.4748 63.7206 4.04302 70.2366 4.09608 78.2214V78.2214C4.14915 86.2061 10.6651 92.6361 18.6499 92.583L87.2624 92.1271" stroke="black" stroke-width="7"/>
<circle cx="19.5" cy="22.5" r="14" stroke="black" stroke-width="7"/>
<circle cx="19.5" cy="77.5" r="14" stroke="black" stroke-width="7"/>
<path d="M84.9607 5.00523C90.8689 4.88412 96.7424 5.89115 102.246 7.96883C107.749 10.0465 112.775 13.1541 117.035 17.1143C121.296 21.0745 124.709 25.8096 127.078 31.0493C129.447 36.2891 130.727 41.9308 130.844 47.6524C130.962 53.374 129.914 59.0635 127.761 64.3959C125.609 69.7283 122.393 74.5993 118.298 78.7308C114.204 82.8622 109.31 86.1732 103.896 88.4746C98.4825 90.7761 92.6552 92.023 86.7469 92.1441" stroke="black" stroke-width="7"/>
<path d="M85.9959 36.0981C87.7675 36.0618 89.5289 36.3762 91.1796 37.0235C92.8302 37.6708 94.3378 38.6383 95.6163 39.8706C96.8948 41.103 97.9191 42.5761 98.6307 44.206C99.3423 45.8358 99.7274 47.5903 99.7639 49.3695C99.8003 51.1486 99.4875 52.9175 98.8433 54.5751C98.199 56.2327 97.2359 57.7466 96.009 59.0303C94.7822 60.314 93.3155 61.3424 91.6927 62.0568C90.07 62.7712 88.3229 63.1576 86.5514 63.1939" stroke="black" stroke-width="7"/>
<path d="M86.4055 148.223C59.5557 148.044 42.6197 147.932 18.934 147.774C11.0175 147.722 4.63992 141.261 4.69253 133.345V133.345C4.74514 125.428 11.2054 119.053 19.1219 119.106L86.596 119.554" stroke="black" stroke-width="7"/>
<path d="M87.0702 92.4676C59.7691 92.2861 42.5621 92.1718 18.4596 92.0116C10.4748 91.9585 4.04302 85.4426 4.09608 77.4578V77.4578C4.14915 69.473 10.6651 63.0431 18.6499 63.0961L87.2624 63.5521" stroke="black" stroke-width="7"/>
<circle r="14" transform="matrix(1 0 0 -1 19.5 133.179)" stroke="black" stroke-width="7"/>
<path d="M85.0122 148.162C90.9204 148.283 96.7933 147.309 102.295 145.294C107.797 143.28 112.821 140.265 117.079 136.421C121.338 132.578 124.747 127.981 127.113 122.893C129.48 117.806 130.756 112.328 130.87 106.771C130.984 101.214 129.933 95.6881 127.777 90.508C125.622 85.328 122.403 80.5954 118.306 76.5806C114.209 72.5658 109.313 69.3473 103.898 67.109C98.4831 64.8706 92.6552 63.6562 86.7469 63.5351" stroke="black" stroke-width="7"/>
<path d="M85.996 119.581C87.7675 119.617 89.5289 119.303 91.1796 118.656C92.8302 118.008 94.3378 117.041 95.6163 115.808C96.8948 114.576 97.9191 113.103 98.6307 111.473C99.3424 109.843 99.7274 108.089 99.7639 106.31C99.8003 104.531 99.4875 102.762 98.8433 101.104C98.199 99.4465 97.236 97.9326 96.0091 96.6489C94.7822 95.3651 93.3155 94.3367 91.6927 93.6223C90.07 92.9079 88.3229 92.5215 86.5514 92.4852" stroke="black" stroke-width="7"/>
</svg>
