<svg width="280" height="326" viewBox="0 0 280 326" fill="none" xmlns="http://www.w3.org/2000/svg">
<path d="M1 82.5L142 1L279.5 82.5V243.5L139.5 324.5L1 243.5V82.5Z" fill="#0A192E" stroke="black"/>
<path d="M101.679 233V97.9219H145.839C160.497 97.9219 171.506 100.952 178.866 107.014C186.288 113.075 189.999 122.043 189.999 133.918C189.999 140.227 188.205 145.824 184.618 150.71C181.031 155.534 176.145 159.276 169.96 161.936C177.258 163.977 183.01 167.873 187.216 173.625C191.483 179.315 193.617 186.118 193.617 194.035C193.617 206.158 189.69 215.682 181.835 222.609C173.98 229.536 162.878 233 148.529 233H101.679ZM119.491 169.821V218.435H148.9C157.188 218.435 163.713 216.301 168.476 212.033C173.3 207.704 175.712 201.766 175.712 194.221C175.712 177.954 166.868 169.821 149.179 169.821H119.491ZM119.491 155.534H146.396C154.188 155.534 160.404 153.586 165.043 149.689C169.743 145.793 172.094 140.505 172.094 133.825C172.094 126.403 169.929 121.022 165.6 117.683C161.27 114.281 154.683 112.58 145.839 112.58H119.491V155.534Z" fill="#FC4177"/>
</svg>
